<svg viewBox="0 0 174 200" xmlns="http://www.w3.org/2000/svg" style="enable-background:new 0 0 174 200"><style>.st0{fill:#fff}</style><path d="M174,13 L174,187 L0,187 L0,13 L174,13 Z M166,21 L8,21 L8,179 L166,179 L166,21 Z M143,62.399 L143,126 C143,136.930636 134.231271,145.813225 123.344489,145.997093 L123,146 L51,146 C40.0693643,146 31.186775,137.231271 31.0029071,126.344489 L31,126 L31,62.746 L47,68.296 L47,126 C47,128.142195 48.6839685,129.891079 50.8003597,129.995105 L51,130 L123,130 C125.142195,130 126.891079,128.316032 126.995105,126.19964 L127,126 L127,67.949 L143,62.399 Z M100,86 L100,102 L75,102 L75,86 L100,86 Z" id="形状" fill="#FFFFFF" fill-rule="nonzero"></path></svg>
