<?xml version="1.0" encoding="UTF-8"?>
<svg width="296px" height="54px" viewBox="0 0 296 54" version="1.1" xmlns="http://www.w3.org/2000/svg" xmlns:xlink="http://www.w3.org/1999/xlink">
    <title>logo</title>
    <g id="logo" stroke="none" stroke-width="1" fill="none" fill-rule="evenodd">
        <g id="编组" transform="translate(6.000000, 11.000000)" fill="#3A50F5">
            <path d="M240.257286,1 L240.257286,25.5001474 C240.257286,26.6538484 241.207002,27.5972869 242.374816,27.6014008 L280.741325,27.7782955 L280.740862,23.744913 L284.997685,23.744913 L285,32 L242.355831,31.8039074 C238.851928,31.7906517 236,28.9617075 236,25.5001474 L236,3.00252138 L240.257286,1 Z M57,0 L61.273695,2.05337317 L61.2732301,14.6520198 L100.588993,14.6520198 C104.047215,14.6520198 106.874648,17.4267062 106.995945,20.8843577 L107,21.1158567 L102.72584,21.1158567 C102.72584,19.9793619 101.848885,19.0457034 100.741384,18.966664 L100.588993,18.9612444 L61.2732301,18.9612444 L61.2741598,27.6912441 L100.589458,27.6912441 C101.716582,27.6912441 102.642542,26.8065695 102.72093,25.6898238 L102.726305,25.5361631 L102.726305,25.4592964 L107,25.4592964 L107,25.5361631 C107,29.0235942 104.248191,31.8736458 100.819048,31.995913 L100.589458,32 L57,32 L57,0 Z M53,0 L53,24.6278394 C53,28.1412836 50.1062761,31 46.5498067,31 L6.45019326,31 C2.89278844,31 0,28.1412836 0,24.6278394 L0,0 L4.29966113,2.02378823 L4.29966113,24.6278394 C4.29966113,25.7986794 5.26454756,26.7518929 6.45019326,26.7518929 L46.5498067,26.7518929 C47.7354524,26.7518929 48.6998712,25.7986794 48.6998712,24.6278394 L48.6998712,2.02378823 L53,0 Z M188.453426,0 L224.64838,0.167492744 C228.166281,0.183642182 231.015206,3.05085957 231.000061,6.55990176 L230.9546,24.6615762 C230.947198,26.3655727 230.276373,27.9606757 229.065649,29.156657 C227.933111,30.2766409 226.454692,30.9212773 224.873387,30.9932415 L224.545675,31 L223.210501,30.994463 L223.228544,26.7522364 L224.56418,26.7577733 C225.093438,26.738394 225.667572,26.5422937 226.071918,26.1431718 C226.474876,25.7454342 226.69833,25.213887 226.701568,24.6458882 L226.745982,6.54467515 C226.751533,5.37084171 225.801275,4.41525638 224.62895,4.40971943 L188.423817,4.2426881 C187.859861,4.2426881 187.32829,4.46047481 186.927183,4.85682816 C186.524225,5.25502716 186.300771,5.78611297 186.297995,6.35272754 L186.253582,24.4553248 C186.250343,25.0260921 186.469634,25.5604078 186.868891,25.9622981 C187.269072,26.3641884 187.802494,26.5875121 188.369689,26.5902806 L210.679948,26.6940984 L210.660517,30.9363251 L188.350258,30.8329687 C186.645899,30.8246632 185.047022,30.1546923 183.847864,28.9480985 C182.64778,27.7410434 181.991297,26.1390191 181.999915,24.4405596 L182.044038,6.33750093 C182.051903,4.63304309 182.722728,3.03978567 183.933452,1.84242018 C185.06599,0.723304834 186.543999,0.07871953 188.125255,0.00675833629 L188.453426,0 Z M219,24 L219,31 L214,31 L214,25.6869326 L219,24 Z M178,0 L175.945289,4.23057741 L133.469995,4.23057741 C132.3325,4.23057741 131.397591,5.09868489 131.318444,6.19501241 L131.313017,6.34586611 L131.313017,12.3447825 C131.313017,13.4605353 132.198471,14.3771537 133.316199,14.4547505 L133.469995,14.4600712 L171.530474,14.4600712 C175.020057,14.4600712 177.873495,17.1841172 177.995908,20.5790943 L178,20.8063975 L178,24.6541339 C178,28.0774661 175.222422,30.8759323 171.762147,30.9959869 L171.530474,31 L135.839012,31 L135.839012,26.7694226 L171.530474,26.7694226 C172.667969,26.7694226 173.60202,25.9008941 173.681092,24.8049327 L173.686513,24.6541339 L173.686513,20.8063975 C173.686513,19.6906448 172.801919,18.7736053 171.684265,18.6959719 L171.530474,18.6906487 L133.469995,18.6906487 C129.979954,18.6906487 127.126506,15.9666027 127.004092,12.5720564 L127,12.3447825 L127,6.34586611 C127,2.9225339 129.777578,0.1240677 133.238292,0.00401308812 L133.469995,0 L178,0 Z M118.998913,8 L119,31 L114.001631,31 L114,8 L118.998913,8 Z M132,26 L132,31 L127,31 L127,26 L132,26 Z M30,11 L30,16 L22,16 L22,11 L30,11 Z M119,0 L119,5 L114,5 L114,0 L119,0 Z" id="形状"></path>
        </g>
    </g>
</svg>